<?xml version="1.0"?>
<!-- Generated by SVGo and Plotinum VG -->
<svg width="384pt" height="384pt" viewBox="0 0 384 384"
	xmlns="http://www.w3.org/2000/svg"
	xmlns:xlink="http://www.w3.org/1999/xlink">
<g transform="scale(1, -1) translate(0, -384)">
<path d="M0,0L384,0L384,384L0,384Z" style="fill:#FFFFFF" />
<text x="140.89" y="-372.45" transform="scale(1, -1)"
	style="font-family:Times;font-weight:normal;font-style:normal;font-size:12px">ChiSq: 3.231150e-02</text>
<text x="213.42" y="-3.8613" transform="scale(1, -1)"
	style="font-family:Times;font-weight:normal;font-style:normal;font-size:12px">Zr</text>
<text x="111.46" y="-15.602" transform="scale(1, -1)"
	style="font-family:Times;font-weight:normal;font-style:normal;font-size:10px">30</text>
<text x="197.84" y="-15.602" transform="scale(1, -1)"
	style="font-family:Times;font-weight:normal;font-style:normal;font-size:10px">60</text>
<text x="284.21" y="-15.602" transform="scale(1, -1)"
	style="font-family:Times;font-weight:normal;font-style:normal;font-size:10px">90</text>
<text x="368.09" y="-15.602" transform="scale(1, -1)"
	style="font-family:Times;font-weight:normal;font-style:normal;font-size:10px">120</text>
<path d="M116.46,25.23L116.46,33.23" style="fill:none;stroke:#000000;stroke-width:0.5" />
<path d="M202.84,25.23L202.84,33.23" style="fill:none;stroke:#000000;stroke-width:0.5" />
<path d="M289.21,25.23L289.21,33.23" style="fill:none;stroke:#000000;stroke-width:0.5" />
<path d="M375.59,25.23L375.59,33.23" style="fill:none;stroke:#000000;stroke-width:0.5" />
<path d="M58.871,29.23L58.871,33.23" style="fill:none;stroke:#000000;stroke-width:0.5" />
<path d="M87.664,29.23L87.664,33.23" style="fill:none;stroke:#000000;stroke-width:0.5" />
<path d="M145.25,29.23L145.25,33.23" style="fill:none;stroke:#000000;stroke-width:0.5" />
<path d="M174.04,29.23L174.04,33.23" style="fill:none;stroke:#000000;stroke-width:0.5" />
<path d="M231.63,29.23L231.63,33.23" style="fill:none;stroke:#000000;stroke-width:0.5" />
<path d="M260.42,29.23L260.42,33.23" style="fill:none;stroke:#000000;stroke-width:0.5" />
<path d="M318.01,29.23L318.01,33.23" style="fill:none;stroke:#000000;stroke-width:0.5" />
<path d="M346.8,29.23L346.8,33.23" style="fill:none;stroke:#000000;stroke-width:0.5" />
<path d="M56.666,33.23L381.5,33.23" style="fill:none;stroke:#000000;stroke-width:0.5" />
<g transform="rotate(90)">
<text x="198.2" y="11.555" transform="scale(1, -1)"
	style="font-family:Times;font-weight:normal;font-style:normal;font-size:12px">Zi</text>
</g>
<text x="20.416" y="-37.796" transform="scale(1, -1)"
	style="font-family:Times;font-weight:normal;font-style:normal;font-size:10px">0.00</text>
<text x="15.416" y="-183.36" transform="scale(1, -1)"
	style="font-family:Times;font-weight:normal;font-style:normal;font-size:10px">25.00</text>
<text x="15.416" y="-328.92" transform="scale(1, -1)"
	style="font-family:Times;font-weight:normal;font-style:normal;font-size:10px">50.00</text>
<path d="M40.416,42.517L48.416,42.517" style="fill:none;stroke:#000000;stroke-width:0.5" />
<path d="M40.416,188.08L48.416,188.08" style="fill:none;stroke:#000000;stroke-width:0.5" />
<path d="M40.416,333.64L48.416,333.64" style="fill:none;stroke:#000000;stroke-width:0.5" />
<path d="M44.416,71.63L48.416,71.63" style="fill:none;stroke:#000000;stroke-width:0.5" />
<path d="M44.416,100.74L48.416,100.74" style="fill:none;stroke:#000000;stroke-width:0.5" />
<path d="M44.416,129.85L48.416,129.85" style="fill:none;stroke:#000000;stroke-width:0.5" />
<path d="M44.416,158.97L48.416,158.97" style="fill:none;stroke:#000000;stroke-width:0.5" />
<path d="M44.416,217.19L48.416,217.19" style="fill:none;stroke:#000000;stroke-width:0.5" />
<path d="M44.416,246.3L48.416,246.3" style="fill:none;stroke:#000000;stroke-width:0.5" />
<path d="M44.416,275.42L48.416,275.42" style="fill:none;stroke:#000000;stroke-width:0.5" />
<path d="M44.416,304.53L48.416,304.53" style="fill:none;stroke:#000000;stroke-width:0.5" />
<path d="M44.416,362.75L48.416,362.75" style="fill:none;stroke:#000000;stroke-width:0.5" />
<path d="M48.416,40.98L48.416,366.08" style="fill:none;stroke:#000000;stroke-width:0.5" />
<path d="M381.5,47.952L381.49,49.259L381.47,50.881L381.44,52.893L381.4,55.388L381.33,58.482L381.22,62.317L381.06,67.069L380.81,72.954L380.43,80.233L379.85,89.223L378.95,100.3L377.58,113.9L375.5,130.49L372.34,150.56L367.61,174.52L360.6,202.54L350.42,234.29L336.03,268.6L316.48,303.05L291.29,333.83L260.96,356.27L227.26,366.08L193.04,361.18L161.3,342.62L134.25,314.13L112.81,280.43L96.759,245.74L85.265,212.93L77.287,183.58L71.87,158.24L68.245,136.89L65.845,119.16L64.265,104.61L63.231,92.729L62.555,83.074L62.114,75.253L61.827,68.928L61.641,63.817L61.519,59.692L61.44,56.364L61.389,53.68L61.356,51.516L61.334,49.771L61.32,48.364L61.311,47.23L61.305,46.316L61.301,45.579L61.298,44.986L61.297,44.507L61.296,44.121L61.295,43.81L61.295,43.559L61.294,43.357L61.294,43.194L61.294,43.063L61.294,42.957L61.294,42.872L61.294,42.803L61.294,42.748L61.294,42.703L61.294,42.667" style="fill:none;stroke:#F15A60" />
<path d="M384,47.952A2.5,2.5 0 1 1 379,47.952A2.5,2.5 0 1 1 384,47.952Z" style="fill:none;stroke:#F15A60;stroke-width:0.5" />
<path d="M383.99,49.259A2.5,2.5 0 1 1 378.99,49.259A2.5,2.5 0 1 1 383.99,49.259Z" style="fill:none;stroke:#F15A60;stroke-width:0.5" />
<path d="M383.97,50.881A2.5,2.5 0 1 1 378.97,50.881A2.5,2.5 0 1 1 383.97,50.881Z" style="fill:none;stroke:#F15A60;stroke-width:0.5" />
<path d="M383.94,52.893A2.5,2.5 0 1 1 378.94,52.893A2.5,2.5 0 1 1 383.94,52.893Z" style="fill:none;stroke:#F15A60;stroke-width:0.5" />
<path d="M383.9,55.388A2.5,2.5 0 1 1 378.9,55.388A2.5,2.5 0 1 1 383.9,55.388Z" style="fill:none;stroke:#F15A60;stroke-width:0.5" />
<path d="M383.83,58.482A2.5,2.5 0 1 1 378.83,58.482A2.5,2.5 0 1 1 383.83,58.482Z" style="fill:none;stroke:#F15A60;stroke-width:0.5" />
<path d="M383.72,62.317A2.5,2.5 0 1 1 378.72,62.317A2.5,2.5 0 1 1 383.72,62.317Z" style="fill:none;stroke:#F15A60;stroke-width:0.5" />
<path d="M383.56,67.069A2.5,2.5 0 1 1 378.56,67.069A2.5,2.5 0 1 1 383.56,67.069Z" style="fill:none;stroke:#F15A60;stroke-width:0.5" />
<path d="M383.31,72.954A2.5,2.5 0 1 1 378.31,72.954A2.5,2.5 0 1 1 383.31,72.954Z" style="fill:none;stroke:#F15A60;stroke-width:0.5" />
<path d="M382.93,80.233A2.5,2.5 0 1 1 377.93,80.233A2.5,2.5 0 1 1 382.93,80.233Z" style="fill:none;stroke:#F15A60;stroke-width:0.5" />
<path d="M382.35,89.223A2.5,2.5 0 1 1 377.35,89.223A2.5,2.5 0 1 1 382.35,89.223Z" style="fill:none;stroke:#F15A60;stroke-width:0.5" />
<path d="M381.45,100.3A2.5,2.5 0 1 1 376.45,100.3A2.5,2.5 0 1 1 381.45,100.3Z" style="fill:none;stroke:#F15A60;stroke-width:0.5" />
<path d="M380.08,113.9A2.5,2.5 0 1 1 375.08,113.9A2.5,2.5 0 1 1 380.08,113.9Z" style="fill:none;stroke:#F15A60;stroke-width:0.5" />
<path d="M378,130.49A2.5,2.5 0 1 1 373,130.49A2.5,2.5 0 1 1 378,130.49Z" style="fill:none;stroke:#F15A60;stroke-width:0.5" />
<path d="M374.84,150.56A2.5,2.5 0 1 1 369.84,150.56A2.5,2.5 0 1 1 374.84,150.56Z" style="fill:none;stroke:#F15A60;stroke-width:0.5" />
<path d="M370.11,174.52A2.5,2.5 0 1 1 365.11,174.52A2.5,2.5 0 1 1 370.11,174.52Z" style="fill:none;stroke:#F15A60;stroke-width:0.5" />
<path d="M363.1,202.54A2.5,2.5 0 1 1 358.1,202.54A2.5,2.5 0 1 1 363.1,202.54Z" style="fill:none;stroke:#F15A60;stroke-width:0.5" />
<path d="M352.92,234.29A2.5,2.5 0 1 1 347.92,234.29A2.5,2.5 0 1 1 352.92,234.29Z" style="fill:none;stroke:#F15A60;stroke-width:0.5" />
<path d="M338.53,268.6A2.5,2.5 0 1 1 333.53,268.6A2.5,2.5 0 1 1 338.53,268.6Z" style="fill:none;stroke:#F15A60;stroke-width:0.5" />
<path d="M318.98,303.05A2.5,2.5 0 1 1 313.98,303.05A2.5,2.5 0 1 1 318.98,303.05Z" style="fill:none;stroke:#F15A60;stroke-width:0.5" />
<path d="M293.79,333.83A2.5,2.5 0 1 1 288.79,333.83A2.5,2.5 0 1 1 293.79,333.83Z" style="fill:none;stroke:#F15A60;stroke-width:0.5" />
<path d="M263.46,356.27A2.5,2.5 0 1 1 258.46,356.27A2.5,2.5 0 1 1 263.46,356.27Z" style="fill:none;stroke:#F15A60;stroke-width:0.5" />
<path d="M229.76,366.08A2.5,2.5 0 1 1 224.76,366.08A2.5,2.5 0 1 1 229.76,366.08Z" style="fill:none;stroke:#F15A60;stroke-width:0.5" />
<path d="M195.54,361.18A2.5,2.5 0 1 1 190.54,361.18A2.5,2.5 0 1 1 195.54,361.18Z" style="fill:none;stroke:#F15A60;stroke-width:0.5" />
<path d="M163.8,342.62A2.5,2.5 0 1 1 158.8,342.62A2.5,2.5 0 1 1 163.8,342.62Z" style="fill:none;stroke:#F15A60;stroke-width:0.5" />
<path d="M136.75,314.13A2.5,2.5 0 1 1 131.75,314.13A2.5,2.5 0 1 1 136.75,314.13Z" style="fill:none;stroke:#F15A60;stroke-width:0.5" />
<path d="M115.31,280.43A2.5,2.5 0 1 1 110.31,280.43A2.5,2.5 0 1 1 115.31,280.43Z" style="fill:none;stroke:#F15A60;stroke-width:0.5" />
<path d="M99.259,245.74A2.5,2.5 0 1 1 94.259,245.74A2.5,2.5 0 1 1 99.259,245.74Z" style="fill:none;stroke:#F15A60;stroke-width:0.5" />
<path d="M87.765,212.93A2.5,2.5 0 1 1 82.765,212.93A2.5,2.5 0 1 1 87.765,212.93Z" style="fill:none;stroke:#F15A60;stroke-width:0.5" />
<path d="M79.787,183.58A2.5,2.5 0 1 1 74.787,183.58A2.5,2.5 0 1 1 79.787,183.58Z" style="fill:none;stroke:#F15A60;stroke-width:0.5" />
<path d="M74.37,158.24A2.5,2.5 0 1 1 69.37,158.24A2.5,2.5 0 1 1 74.37,158.24Z" style="fill:none;stroke:#F15A60;stroke-width:0.5" />
<path d="M70.745,136.89A2.5,2.5 0 1 1 65.745,136.89A2.5,2.5 0 1 1 70.745,136.89Z" style="fill:none;stroke:#F15A60;stroke-width:0.5" />
<path d="M68.345,119.16A2.5,2.5 0 1 1 63.345,119.16A2.5,2.5 0 1 1 68.345,119.16Z" style="fill:none;stroke:#F15A60;stroke-width:0.5" />
<path d="M66.765,104.61A2.5,2.5 0 1 1 61.765,104.61A2.5,2.5 0 1 1 66.765,104.61Z" style="fill:none;stroke:#F15A60;stroke-width:0.5" />
<path d="M65.731,92.729A2.5,2.5 0 1 1 60.731,92.729A2.5,2.5 0 1 1 65.731,92.729Z" style="fill:none;stroke:#F15A60;stroke-width:0.5" />
<path d="M65.055,83.074A2.5,2.5 0 1 1 60.055,83.074A2.5,2.5 0 1 1 65.055,83.074Z" style="fill:none;stroke:#F15A60;stroke-width:0.5" />
<path d="M64.614,75.253A2.5,2.5 0 1 1 59.614,75.253A2.5,2.5 0 1 1 64.614,75.253Z" style="fill:none;stroke:#F15A60;stroke-width:0.5" />
<path d="M64.327,68.928A2.5,2.5 0 1 1 59.327,68.928A2.5,2.5 0 1 1 64.327,68.928Z" style="fill:none;stroke:#F15A60;stroke-width:0.5" />
<path d="M64.141,63.817A2.5,2.5 0 1 1 59.141,63.817A2.5,2.5 0 1 1 64.141,63.817Z" style="fill:none;stroke:#F15A60;stroke-width:0.5" />
<path d="M64.019,59.692A2.5,2.5 0 1 1 59.019,59.692A2.5,2.5 0 1 1 64.019,59.692Z" style="fill:none;stroke:#F15A60;stroke-width:0.5" />
<path d="M63.94,56.364A2.5,2.5 0 1 1 58.94,56.364A2.5,2.5 0 1 1 63.94,56.364Z" style="fill:none;stroke:#F15A60;stroke-width:0.5" />
<path d="M63.889,53.68A2.5,2.5 0 1 1 58.889,53.68A2.5,2.5 0 1 1 63.889,53.68Z" style="fill:none;stroke:#F15A60;stroke-width:0.5" />
<path d="M63.856,51.516A2.5,2.5 0 1 1 58.856,51.516A2.5,2.5 0 1 1 63.856,51.516Z" style="fill:none;stroke:#F15A60;stroke-width:0.5" />
<path d="M63.834,49.771A2.5,2.5 0 1 1 58.834,49.771A2.5,2.5 0 1 1 63.834,49.771Z" style="fill:none;stroke:#F15A60;stroke-width:0.5" />
<path d="M63.82,48.364A2.5,2.5 0 1 1 58.82,48.364A2.5,2.5 0 1 1 63.82,48.364Z" style="fill:none;stroke:#F15A60;stroke-width:0.5" />
<path d="M63.811,47.23A2.5,2.5 0 1 1 58.811,47.23A2.5,2.5 0 1 1 63.811,47.23Z" style="fill:none;stroke:#F15A60;stroke-width:0.5" />
<path d="M63.805,46.316A2.5,2.5 0 1 1 58.805,46.316A2.5,2.5 0 1 1 63.805,46.316Z" style="fill:none;stroke:#F15A60;stroke-width:0.5" />
<path d="M63.801,45.579A2.5,2.5 0 1 1 58.801,45.579A2.5,2.5 0 1 1 63.801,45.579Z" style="fill:none;stroke:#F15A60;stroke-width:0.5" />
<path d="M63.798,44.986A2.5,2.5 0 1 1 58.798,44.986A2.5,2.5 0 1 1 63.798,44.986Z" style="fill:none;stroke:#F15A60;stroke-width:0.5" />
<path d="M63.797,44.507A2.5,2.5 0 1 1 58.797,44.507A2.5,2.5 0 1 1 63.797,44.507Z" style="fill:none;stroke:#F15A60;stroke-width:0.5" />
<path d="M63.796,44.121A2.5,2.5 0 1 1 58.796,44.121A2.5,2.5 0 1 1 63.796,44.121Z" style="fill:none;stroke:#F15A60;stroke-width:0.5" />
<path d="M63.795,43.81A2.5,2.5 0 1 1 58.795,43.81A2.5,2.5 0 1 1 63.795,43.81Z" style="fill:none;stroke:#F15A60;stroke-width:0.5" />
<path d="M63.795,43.559A2.5,2.5 0 1 1 58.795,43.559A2.5,2.5 0 1 1 63.795,43.559Z" style="fill:none;stroke:#F15A60;stroke-width:0.5" />
<path d="M63.794,43.357A2.5,2.5 0 1 1 58.794,43.357A2.5,2.5 0 1 1 63.794,43.357Z" style="fill:none;stroke:#F15A60;stroke-width:0.5" />
<path d="M63.794,43.194A2.5,2.5 0 1 1 58.794,43.194A2.5,2.5 0 1 1 63.794,43.194Z" style="fill:none;stroke:#F15A60;stroke-width:0.5" />
<path d="M63.794,43.063A2.5,2.5 0 1 1 58.794,43.063A2.5,2.5 0 1 1 63.794,43.063Z" style="fill:none;stroke:#F15A60;stroke-width:0.5" />
<path d="M63.794,42.957A2.5,2.5 0 1 1 58.794,42.957A2.5,2.5 0 1 1 63.794,42.957Z" style="fill:none;stroke:#F15A60;stroke-width:0.5" />
<path d="M63.794,42.872A2.5,2.5 0 1 1 58.794,42.872A2.5,2.5 0 1 1 63.794,42.872Z" style="fill:none;stroke:#F15A60;stroke-width:0.5" />
<path d="M63.794,42.803A2.5,2.5 0 1 1 58.794,42.803A2.5,2.5 0 1 1 63.794,42.803Z" style="fill:none;stroke:#F15A60;stroke-width:0.5" />
<path d="M63.794,42.748A2.5,2.5 0 1 1 58.794,42.748A2.5,2.5 0 1 1 63.794,42.748Z" style="fill:none;stroke:#F15A60;stroke-width:0.5" />
<path d="M63.794,42.703A2.5,2.5 0 1 1 58.794,42.703A2.5,2.5 0 1 1 63.794,42.703Z" style="fill:none;stroke:#F15A60;stroke-width:0.5" />
<path d="M63.794,42.667A2.5,2.5 0 1 1 58.794,42.667A2.5,2.5 0 1 1 63.794,42.667Z" style="fill:none;stroke:#F15A60;stroke-width:0.5" />
<path d="M352.21,46.498L351.89,48.03L351.84,47.559L351.29,50.611L351.74,51.658L351.59,53.796L350.91,56.172L350.57,58.971L350.3,63.66L351,68.848L350.57,75.397L350.28,83.949L348.8,92.86L347.78,103.81L345.72,119.25L344.65,137.17L339.81,157.74L333.33,180.56L324.53,208.43L311.46,236.61L295.05,266.43L264.9,296.73L235.87,326.55L206.61,329.35L171.53,324.01L146.7,309.98L125.37,278.04L103.27,251.98L90.13,220.27L79.928,194.3L72.909,165.84L67.977,143.97L65.718,126.14L63.126,109.2L61.412,97.149L60.614,86.652L59.827,77.943L59.788,69.921L59.21,65.785L59.089,61.188L58.933,57.901L58.693,55.617L58.986,52.545L58.966,50.501L58.804,48.592L58.897,47.722L58.833,47.441L58.626,45.278L58.627,45.312L58.788,45.769L59.385,44.244L59.34,43.353L58.45,44.224L58.523,43.651L58.579,44.395L58.285,43.846L58.223,44.914L57.65,41.557L57.224,43.277L57.309,41.692L56.727,42.871L56.666,40.98" style="fill:none;stroke:#7AC36A;stroke-dasharray:6,2" />
<path d="M350.07,44.364L354.34,44.364L354.34,48.631L350.07,48.631Z" style="fill:none;stroke:#7AC36A;stroke-width:0.5" />
<path d="M349.75,45.896L354.02,45.896L354.02,50.164L349.75,50.164Z" style="fill:none;stroke:#7AC36A;stroke-width:0.5" />
<path d="M349.71,45.425L353.97,45.425L353.97,49.693L349.71,49.693Z" style="fill:none;stroke:#7AC36A;stroke-width:0.5" />
<path d="M349.16,48.477L353.43,48.477L353.43,52.745L349.16,52.745Z" style="fill:none;stroke:#7AC36A;stroke-width:0.5" />
<path d="M349.6,49.525L353.87,49.525L353.87,53.792L349.6,53.792Z" style="fill:none;stroke:#7AC36A;stroke-width:0.5" />
<path d="M349.46,51.662L353.73,51.662L353.73,55.929L349.46,55.929Z" style="fill:none;stroke:#7AC36A;stroke-width:0.5" />
<path d="M348.77,54.038L353.04,54.038L353.04,58.306L348.77,58.306Z" style="fill:none;stroke:#7AC36A;stroke-width:0.5" />
<path d="M348.43,56.837L352.7,56.837L352.7,61.105L348.43,61.105Z" style="fill:none;stroke:#7AC36A;stroke-width:0.5" />
<path d="M348.17,61.526L352.44,61.526L352.44,65.794L348.17,65.794Z" style="fill:none;stroke:#7AC36A;stroke-width:0.5" />
<path d="M348.86,66.714L353.13,66.714L353.13,70.982L348.86,70.982Z" style="fill:none;stroke:#7AC36A;stroke-width:0.5" />
<path d="M348.44,73.263L352.71,73.263L352.71,77.531L348.44,77.531Z" style="fill:none;stroke:#7AC36A;stroke-width:0.5" />
<path d="M348.14,81.815L352.41,81.815L352.41,86.083L348.14,86.083Z" style="fill:none;stroke:#7AC36A;stroke-width:0.5" />
<path d="M346.67,90.727L350.93,90.727L350.93,94.994L346.67,94.994Z" style="fill:none;stroke:#7AC36A;stroke-width:0.5" />
<path d="M345.65,101.68L349.91,101.68L349.91,105.94L345.65,105.94Z" style="fill:none;stroke:#7AC36A;stroke-width:0.5" />
<path d="M343.58,117.12L347.85,117.12L347.85,121.39L343.58,121.39Z" style="fill:none;stroke:#7AC36A;stroke-width:0.5" />
<path d="M342.51,135.04L346.78,135.04L346.78,139.31L342.51,139.31Z" style="fill:none;stroke:#7AC36A;stroke-width:0.5" />
<path d="M337.68,155.6L341.95,155.6L341.95,159.87L337.68,159.87Z" style="fill:none;stroke:#7AC36A;stroke-width:0.5" />
<path d="M331.2,178.42L335.47,178.42L335.47,182.69L331.2,182.69Z" style="fill:none;stroke:#7AC36A;stroke-width:0.5" />
<path d="M322.39,206.3L326.66,206.3L326.66,210.56L322.39,210.56Z" style="fill:none;stroke:#7AC36A;stroke-width:0.5" />
<path d="M309.33,234.47L313.6,234.47L313.6,238.74L309.33,238.74Z" style="fill:none;stroke:#7AC36A;stroke-width:0.5" />
<path d="M292.91,264.3L297.18,264.3L297.18,268.57L292.91,268.57Z" style="fill:none;stroke:#7AC36A;stroke-width:0.5" />
<path d="M262.77,294.59L267.03,294.59L267.03,298.86L262.77,298.86Z" style="fill:none;stroke:#7AC36A;stroke-width:0.5" />
<path d="M233.74,324.41L238.01,324.41L238.01,328.68L233.74,328.68Z" style="fill:none;stroke:#7AC36A;stroke-width:0.5" />
<path d="M204.48,327.22L208.74,327.22L208.74,331.49L204.48,331.49Z" style="fill:none;stroke:#7AC36A;stroke-width:0.5" />
<path d="M169.4,321.88L173.67,321.88L173.67,326.15L169.4,326.15Z" style="fill:none;stroke:#7AC36A;stroke-width:0.5" />
<path d="M144.57,307.84L148.83,307.84L148.83,312.11L144.57,312.11Z" style="fill:none;stroke:#7AC36A;stroke-width:0.5" />
<path d="M123.24,275.91L127.5,275.91L127.5,280.18L123.24,280.18Z" style="fill:none;stroke:#7AC36A;stroke-width:0.5" />
<path d="M101.14,249.84L105.41,249.84L105.41,254.11L101.14,254.11Z" style="fill:none;stroke:#7AC36A;stroke-width:0.5" />
<path d="M87.997,218.14L92.264,218.14L92.264,222.4L87.997,222.4Z" style="fill:none;stroke:#7AC36A;stroke-width:0.5" />
<path d="M77.794,192.17L82.062,192.17L82.062,196.44L77.794,196.44Z" style="fill:none;stroke:#7AC36A;stroke-width:0.5" />
<path d="M70.775,163.7L75.043,163.7L75.043,167.97L70.775,167.97Z" style="fill:none;stroke:#7AC36A;stroke-width:0.5" />
<path d="M65.843,141.84L70.111,141.84L70.111,146.1L65.843,146.1Z" style="fill:none;stroke:#7AC36A;stroke-width:0.5" />
<path d="M63.584,124L67.852,124L67.852,128.27L63.584,128.27Z" style="fill:none;stroke:#7AC36A;stroke-width:0.5" />
<path d="M60.992,107.07L65.26,107.07L65.26,111.34L60.992,111.34Z" style="fill:none;stroke:#7AC36A;stroke-width:0.5" />
<path d="M59.278,95.015L63.546,95.015L63.546,99.283L59.278,99.283Z" style="fill:none;stroke:#7AC36A;stroke-width:0.5" />
<path d="M58.48,84.518L62.748,84.518L62.748,88.785L58.48,88.785Z" style="fill:none;stroke:#7AC36A;stroke-width:0.5" />
<path d="M57.693,75.809L61.961,75.809L61.961,80.076L57.693,80.076Z" style="fill:none;stroke:#7AC36A;stroke-width:0.5" />
<path d="M57.654,67.787L61.922,67.787L61.922,72.055L57.654,72.055Z" style="fill:none;stroke:#7AC36A;stroke-width:0.5" />
<path d="M57.076,63.651L61.344,63.651L61.344,67.918L57.076,67.918Z" style="fill:none;stroke:#7AC36A;stroke-width:0.5" />
<path d="M56.956,59.054L61.223,59.054L61.223,63.322L56.956,63.322Z" style="fill:none;stroke:#7AC36A;stroke-width:0.5" />
<path d="M56.799,55.767L61.067,55.767L61.067,60.035L56.799,60.035Z" style="fill:none;stroke:#7AC36A;stroke-width:0.5" />
<path d="M56.559,53.483L60.826,53.483L60.826,57.751L56.559,57.751Z" style="fill:none;stroke:#7AC36A;stroke-width:0.5" />
<path d="M56.852,50.411L61.12,50.411L61.12,54.679L56.852,54.679Z" style="fill:none;stroke:#7AC36A;stroke-width:0.5" />
<path d="M56.832,48.367L61.1,48.367L61.1,52.635L56.832,52.635Z" style="fill:none;stroke:#7AC36A;stroke-width:0.5" />
<path d="M56.67,46.458L60.938,46.458L60.938,50.726L56.67,50.726Z" style="fill:none;stroke:#7AC36A;stroke-width:0.5" />
<path d="M56.763,45.588L61.031,45.588L61.031,49.856L56.763,49.856Z" style="fill:none;stroke:#7AC36A;stroke-width:0.5" />
<path d="M56.699,45.307L60.967,45.307L60.967,49.575L56.699,49.575Z" style="fill:none;stroke:#7AC36A;stroke-width:0.5" />
<path d="M56.492,43.144L60.759,43.144L60.759,47.412L56.492,47.412Z" style="fill:none;stroke:#7AC36A;stroke-width:0.5" />
<path d="M56.493,43.178L60.761,43.178L60.761,47.446L56.493,47.446Z" style="fill:none;stroke:#7AC36A;stroke-width:0.5" />
<path d="M56.654,43.636L60.922,43.636L60.922,47.903L56.654,47.903Z" style="fill:none;stroke:#7AC36A;stroke-width:0.5" />
<path d="M57.251,42.11L61.519,42.11L61.519,46.377L57.251,46.377Z" style="fill:none;stroke:#7AC36A;stroke-width:0.5" />
<path d="M57.206,41.219L61.474,41.219L61.474,45.487L57.206,45.487Z" style="fill:none;stroke:#7AC36A;stroke-width:0.5" />
<path d="M56.316,42.09L60.584,42.09L60.584,46.358L56.316,46.358Z" style="fill:none;stroke:#7AC36A;stroke-width:0.5" />
<path d="M56.389,41.517L60.657,41.517L60.657,45.785L56.389,45.785Z" style="fill:none;stroke:#7AC36A;stroke-width:0.5" />
<path d="M56.445,42.261L60.713,42.261L60.713,46.529L56.445,46.529Z" style="fill:none;stroke:#7AC36A;stroke-width:0.5" />
<path d="M56.151,41.712L60.419,41.712L60.419,45.98L56.151,45.98Z" style="fill:none;stroke:#7AC36A;stroke-width:0.5" />
<path d="M56.089,42.78L60.357,42.78L60.357,47.048L56.089,47.048Z" style="fill:none;stroke:#7AC36A;stroke-width:0.5" />
<path d="M55.516,39.424L59.784,39.424L59.784,43.691L55.516,43.691Z" style="fill:none;stroke:#7AC36A;stroke-width:0.5" />
<path d="M55.09,41.143L59.358,41.143L59.358,45.411L55.09,45.411Z" style="fill:none;stroke:#7AC36A;stroke-width:0.5" />
<path d="M55.175,39.558L59.443,39.558L59.443,43.826L55.175,43.826Z" style="fill:none;stroke:#7AC36A;stroke-width:0.5" />
<path d="M54.594,40.737L58.861,40.737L58.861,45.004L54.594,45.004Z" style="fill:none;stroke:#7AC36A;stroke-width:0.5" />
<path d="M54.532,38.847L58.8,38.847L58.8,43.114L54.532,43.114Z" style="fill:none;stroke:#7AC36A;stroke-width:0.5" />
<path d="M364,56.146L384,56.146" style="fill:none;stroke:#F15A60" />
<path d="M376.5,56.146A2.5,2.5 0 1 1 371.5,56.146A2.5,2.5 0 1 1 376.5,56.146Z" style="fill:none;stroke:#F15A60;stroke-width:0.5" />
<text x="312.37" y="-50.48" transform="scale(1, -1)"
	style="font-family:Times;font-weight:normal;font-style:normal;font-size:12px">calculated</text>
<path d="M364,44.369L384,44.369" style="fill:none;stroke:#7AC36A;stroke-dasharray:6,2" />
<path d="M371.87,42.235L376.13,42.235L376.13,46.503L371.87,46.503Z" style="fill:none;stroke:#7AC36A;stroke-width:0.5" />
<text x="315.02" y="-38.703" transform="scale(1, -1)"
	style="font-family:Times;font-weight:normal;font-style:normal;font-size:12px">measured</text>
</g>
</svg>
